<?xml version="1.0" standalone="no"?>
<!DOCTYPE svg PUBLIC "-//W3C//DTD SVG 20010904//EN"
 "http://www.w3.org/TR/2001/REC-SVG-20010904/DTD/svg10.dtd">
<svg version="1.0" xmlns="http://www.w3.org/2000/svg"
 width="700.000000pt" height="700.000000pt" viewBox="0 0 700.000000 700.000000"
 preserveAspectRatio="xMidYMid meet">
<metadata>
Created by potrace 1.11, written by Peter Selinger 2001-2013
</metadata>
<g transform="translate(0.000000,700.000000) scale(0.100000,-0.100000)"
fill="#000000" stroke="none">
<path d="M3507 6234 c-1 -1 -42 -4 -92 -8 -172 -12 -231 -21 -432 -60 -49 -10
-212 -57 -293 -84 -813 -277 -1466 -920 -1759 -1732 -35 -99 -97 -320 -106
-382 -4 -23 -8 -45 -10 -48 -2 -3 -9 -44 -15 -90 -6 -47 -13 -96 -15 -110 -22
-147 -23 -524 0 -661 2 -13 6 -46 10 -74 3 -27 8 -57 10 -65 2 -8 6 -32 9 -52
29 -197 133 -506 248 -741 77 -157 248 -426 326 -514 9 -10 40 -45 67 -78 445
-529 1148 -900 1840 -970 33 -3 76 -8 95 -11 52 -7 343 -7 435 1 71 6 228 26
310 40 74 13 279 66 365 95 803 268 1444 873 1753 1655 48 121 99 278 111 341
2 11 9 39 16 63 18 66 49 256 55 336 3 39 8 80 11 92 7 33 6 367 -1 438 -5 55
-15 130 -31 245 -24 172 -106 452 -194 657 -195 454 -553 903 -935 1172 -92
64 -176 121 -180 121 -1 0 -34 19 -71 42 -91 55 -305 157 -424 201 -90 34
-279 93 -324 101 -12 2 -66 13 -121 25 -55 11 -122 23 -150 26 -27 3 -61 8
-75 10 -59 11 -423 27 -433 19z m328 -448 c124 -14 153 -18 250 -38 366 -73
715 -233 1013 -466 l62 -49 -19 -24 -19 -24 -39 30 c-75 59 -124 88 -132 79
-4 -5 -26 -34 -48 -64 -22 -30 -76 -105 -121 -166 l-81 -112 80 -57 c43 -31
81 -61 84 -65 3 -5 -5 -26 -17 -47 -25 -44 -116 -228 -143 -290 -11 -24 -24
-43 -29 -43 -6 0 -51 14 -101 30 -49 16 -92 26 -96 22 -4 -4 -28 -72 -54 -152
-26 -80 -55 -169 -65 -198 l-18 -53 21 -8 c12 -5 60 -21 107 -36 l86 -28 -17
-84 c-19 -90 -25 -134 -44 -298 -1 -11 -3 -23 -4 -27 0 -5 -50 -8 -111 -8 -81
0 -110 -3 -111 -12 -1 -7 -2 -106 -3 -220 l-1 -207 108 0 c59 1 110 -1 113 -4
6 -6 10 -29 19 -112 4 -38 15 -117 26 -175 10 -58 19 -110 19 -117 0 -7 -45
-26 -100 -43 -76 -24 -100 -35 -99 -48 0 -9 28 -102 63 -207 71 -218 52 -202
192 -155 48 16 84 23 84 17 0 -8 63 -139 178 -369 2 -3 -35 -34 -82 -68 l-84
-61 125 -172 c69 -95 126 -173 128 -175 3 -4 43 22 120 77 47 33 47 33 67 14
19 -20 19 -20 -31 -62 -143 -120 -418 -279 -626 -361 -359 -143 -819 -199
-1190 -144 -22 3 -47 7 -55 8 -226 33 -454 105 -676 211 -147 71 -257 138
-390 236 -115 86 -119 91 -95 114 19 16 22 16 68 -16 26 -19 54 -40 61 -47 17
-15 53 -35 56 -30 46 57 246 338 246 345 0 5 -34 33 -75 61 -41 29 -76 56 -79
61 -3 5 23 64 58 132 35 68 76 154 91 190 l28 67 101 -34 c55 -19 103 -31 107
-27 5 7 96 283 100 308 1 6 8 24 16 42 23 56 19 60 -74 89 -123 38 -123 37
-113 76 9 33 11 42 25 128 4 25 9 53 10 62 6 31 18 153 17 171 -1 15 11 17
114 17 84 0 114 3 115 13 4 57 3 411 -1 418 -3 4 -55 10 -114 11 -123 3 -110
-7 -121 103 -3 33 -7 71 -9 85 -3 14 -7 41 -10 60 -3 19 -11 65 -19 101 l-14
66 104 33 c56 19 103 39 103 44 0 15 -122 390 -129 399 -4 4 -49 -6 -101 -23
-51 -16 -97 -30 -102 -30 -4 0 -16 19 -25 43 -9 23 -48 105 -87 182 -39 77
-72 143 -74 147 -2 4 33 33 77 65 44 32 81 62 81 66 0 7 -105 159 -135 194 -5
6 -32 43 -60 82 -27 39 -53 71 -58 71 -4 0 -42 -25 -84 -57 l-76 -56 -19 23
-18 23 57 44 c32 24 67 51 77 60 25 21 170 115 221 143 309 174 630 274 975
306 41 3 76 7 77 8 6 5 315 -2 368 -8z m-2115 -1226 c38 -52 74 -101 80 -108
9 -10 26 -2 78 35 37 25 77 55 88 65 22 19 22 19 45 -24 52 -93 101 -210 93
-218 -5 -4 -48 -20 -97 -35 -48 -15 -89 -31 -92 -34 -4 -7 121 -400 130 -409
2 -2 47 10 100 28 54 17 99 29 100 28 2 -2 6 -21 9 -43 4 -23 8 -50 10 -61 2
-11 7 -47 11 -79 4 -33 9 -68 11 -77 5 -15 -6 -18 -102 -20 l-106 -3 0 -200
c0 -110 1 -207 1 -217 1 -13 13 -16 69 -16 149 -1 141 0 137 -24 -2 -13 -11
-76 -21 -141 -11 -77 -21 -117 -28 -114 -56 21 -187 59 -191 55 -12 -12 -134
-403 -127 -409 4 -4 45 -19 92 -34 47 -14 89 -31 94 -35 5 -5 -16 -61 -53
-135 l-62 -126 -85 66 c-69 53 -88 64 -100 54 -8 -6 -49 -59 -91 -118 -42 -58
-84 -116 -93 -128 -16 -21 -17 -21 -50 30 -37 56 -167 310 -189 367 -52 141
-73 205 -100 308 -16 64 -32 134 -35 156 -4 21 -8 41 -10 45 -2 3 -7 38 -11
76 -3 39 -9 86 -12 105 -9 56 -10 335 -1 419 8 83 17 154 22 186 2 11 7 38 11
60 22 131 91 361 150 500 32 76 107 220 157 303 l50 83 24 -33 c14 -18 56 -76
94 -128z m3972 32 c95 -167 161 -315 212 -478 31 -99 63 -226 70 -281 3 -22 7
-52 10 -65 33 -151 39 -489 11 -693 -44 -327 -156 -646 -323 -922 -53 -87 -56
-91 -71 -73 -9 11 -54 73 -101 139 -47 66 -88 121 -91 121 -5 0 -86 -57 -141
-99 -14 -12 -30 -21 -35 -21 -11 0 -123 222 -123 244 0 9 8 16 18 16 10 0 22
3 26 8 4 4 11 7 14 8 15 1 118 34 129 42 8 5 -6 62 -54 207 -36 110 -67 202
-70 204 -3 4 -133 -35 -189 -56 -7 -3 -15 15 -19 44 -5 26 -10 55 -11 63 -2 8
-6 35 -9 60 -3 25 -7 60 -10 78 l-4 32 62 1 c34 0 81 0 105 -1 l42 -2 0 221 0
221 -105 0 -105 0 4 28 c2 15 8 52 11 82 4 30 9 64 11 75 3 11 7 36 10 55 3
19 7 36 9 38 1 1 46 -12 99 -29 54 -17 99 -29 100 -28 5 6 124 371 128 393 2
15 -11 24 -77 47 -44 15 -88 28 -97 29 -10 0 -18 7 -18 15 0 22 110 245 121
245 5 0 46 -27 91 -59 53 -38 87 -56 94 -50 6 5 51 65 100 134 49 68 94 125
99 125 6 0 40 -53 77 -118z"/>
</g>
</svg>
